#tb 0: 1/1000
0,          0,          0,        0,      384, b5c9daafa548e54a8e33e9881fda33f4
0,         33,         33,        0,      384, 1193acd7ea4b7aac968e35ef83c64378
0,         66,         66,        0,      384, cd0e42c0b5a8b3be6f0e1d224062bf99
0,        100,        100,        0,      384, ed79c71d17f68f86cbfa75ea2bfe97f3
0,        133,        133,        0,      384, 1502a859c7e07b31faad5b80e3e27cf7
0,        166,        166,        0,      384, df3f093da914ea947db93c3baa188ecb
0,        200,        200,        0,      384, 480f86eb183b99277c1b38fdaafe2970
0,        233,        233,        0,      384, 023e0114282e04963f0f52e00e65ac61
0,        266,        266,        0,      384, e67f29cf0acc7f9b553458e1e5c59ebf
0,        300,        300,        0,      384, a779a14ba718f0c1df8a7edc9467d12e
